<?xml version="1.0" encoding="UTF-8"?>
<svg id="_レイヤー_2" data-name="レイヤー 2" xmlns="http://www.w3.org/2000/svg" viewBox="0 0 1405 300">
  <defs>
    <style>
      .cls-1 {
        fill: #fff;
      }
    </style>
  </defs>
  <g id="_レイヤー_1-2" data-name="レイヤー 1">
    <g>
      <path class="cls-1" d="M0,0l27.0364,19.6179.2458,92.1921,18.5978,13.764V34.2772c2.2802-.4072,3.2574.2443,5.049,1.3844,7.0848,4.4789,14.7397,11.8895,21.9874,16.6942v113.6445l18.8436,5.3362v-104.1776l22.0388,14.3375,4.9976,6.3904v104.1882c-5.5044,19.4708-7.0653,12.9805-20.0459,8.6263-25.5503-8.6263-52.5793-9.1192-78.7047-2.2182C46.9106,175.8083,35.6554,134.6485,0,131.2802V0h0Z"/>
      <path class="cls-1" d="M348.7697,131.4179c-35.475,3.3591-46.7812,44.4053-19.9905,67.0176-26.1352-7.2097-53.9909-6.2266-79.6345,2.4579-3.6868,1.2289-7.2097,5.1615-10.9784,4.7518-4.0145-.4096-8.029-10.9784-7.9471-14.9929l.4096-103.9673,67.4272-51.0415,5.0796-1.3928v69.2511c-5.0642,3.6756-10.2101,8.0047-14.2125,12.8239-4.9009,5.881-7.9231,13.4774-12.8239,19.195v-50.0475l-18.8436,13.7575v71.9399l29.9475-4.2548c-.2455-22.5015,13.7464-45.003,33.9568-54.4127l.4857-92.9995L348.1963.0045v131.2495h0v.1639h.5734Z"/>
      <path class="cls-1" d="M136.8207,86.915l28.675,32.8308.2371,93.9777,7.6647,13.0379,7.6647-8.85,1.661-98.1785,28.6525-32.8051v113.5286c0,3.6168,9.0419,12.9053,8.6309,17.0153-25.7284,19.6457-42.6615,49.9773-45.2097,82.5283l-4.6032-19.7279c-6.8226-24.9886-21.6185-47.1003-42.004-62.7182-.411-4.11,8.6309-13.3985,8.6309-17.0153v-113.5405h0v-.0831Z"/>
      <polygon class="cls-1" points="175.7274 27.1778 204.1566 76.253 175.8913 110.4991 172.9418 111.4003 144.5127 76.253 172.778 28.079 175.7274 27.1778"/>
    </g>
    <g>
      <path class="cls-1" d="M1249.281,201.8631v-122.7701h152.235c.7126,2.8566-1.1813,3.2721-2.4449,4.9218-6.8884,8.9935-18.7956,17.1942-26.2015,26.18h-92.4868v60.5666l45.8039.7888,78.6032-76.0879c.4728-.2197,0,3.8543,0,4.0923v39.2864c0,4.403-54.5707,55.093-61.7203,62.6868"/>
      <path class="cls-1" d="M774.5698,170.7613h121.9517l2.4554,2.4554v27.8279l-2.4554,2.4554h-119.4963l-33.5572-31.9202v-92.4868h153.0534l2.4554,2.4554v27.8279s-31.0934,27.3609-31.5976,25.7483c-1.1411-3.6497-.3227-24.9299-1.1411-24.9299h-89.213l-2.4554,2.4554v58.1112Z"/>
      <path class="cls-1" d="M1111.7785,170.7613h120.0279l1.6528,3.2739c-8.2804,6.0576-24.5435,29.4648-34.3915,29.4648h-115.9355l-2.4554-2.4554v-91.6684l31.9202-30.2833h121.1332l2.4554,2.4554v26.191l-2.4554,2.4554h-119.4963l-2.4554,2.4554v58.1112Z"/>
      <polygon class="cls-1" points="943.1741 79.0929 943.1741 154.3919 948.0957 151.947 1020.9286 79.0929 1064.3073 79.0929 1061.8624 84.0147 942.3216 201.8289 914.7381 203.0919 912.0724 201.0446 912.0724 79.0929 943.1741 79.0929"/>
      <path class="cls-1" d="M529.0295,169.1244v-57.2927c2.8568-.7126,3.2721,1.1814,4.9218,2.4449,8.9937,6.8886,17.194,18.7955,26.18,26.2014v61.3851h-46.6527l-119.5068-117.8484-2.4449-4.9218h45.0157l87.5651,87.5865,4.9218,2.4449Z"/>
      <path class="cls-1" d="M634.2819,200.2705l-116.1898-116.2558-2.4449-4.9218h43.3788l123.556,121.9515"/>
      <rect class="cls-1" x="697.2567" y="78.5" width="31.1018" height="124.4071"/>
      <path class="cls-1" d="M684.5384,185.4937l-32.4907-32.311,1.3889-74.0898h31.1018v3.2739"/>
      <rect class="cls-1" x="1126.1338" y="124.3342" width="62.2035" height="31.1018"/>
      <path class="cls-1" d="M1019.34,201.5278c-1.8317-.544-27.4416-26.6-27.4416-26.6l-3.177-4.1665,23.5108-21.1618,50.1513,52.2636"/>
    </g>
  </g>
</svg>