<?xml version="1.0" encoding="UTF-8"?>
<svg id="_レイヤー_1" data-name="レイヤー 1" xmlns="http://www.w3.org/2000/svg" viewBox="0 0 619.1284 76">
  <path d="M524,74.5V0h93c.4353,1.7451-.7217,1.9989-1.4936,3.0067-4.2081,5.4941-11.4822,10.5039-16.0064,15.9933h-56.5v37l27.9815.4819,48.0185-46.4819c.2888-.1342,0,2.3546,0,2.5v24c0,2.6898-33.3371,33.6562-37.7048,38.2952"/>
  <path d="M234,56h74.5l1.5,1.5v17l-1.5,1.5h-73l-20.5-19.5V0h93.5l1.5,1.5v17s-18.9949,16.7147-19.3029,15.7296c-.6971-2.2296-.1971-15.2296-.6971-15.2296h-54.5l-1.5,1.5v35.5Z"/>
  <path d="M440,56h73.5l1.0097,2c-5.0585,3.7006-14.9936,18-21.0097,18h-71l-1.5-1.5V18.5L440.5,0h74l1.5,1.5v16l-1.5,1.5h-73l-1.5,1.5v35.5Z"/>
  <polygon points="337 0 337 46 340.0066 44.5064 384.5 0 411 0 409.5064 3.0067 336.4792 74.9791 319.6285 75.7507 318 74.5 318 0 337 0"/>
  <path d="M84,55V20c1.7452-.4353,1.9989.7217,3.0067,1.4936,5.4942,4.2082,10.5038,11.4821,15.9933,16.0064v37.5h-28.5L1.4936,3.0067,0,0h27.5l53.4933,53.5064,3.0067,1.4936Z"/>
  <path d="M148.4737,74.0271L77.4936,3.0067l-1.4936-3.0067h26.5l75.4801,74.4999"/>
  <rect x="187" width="19" height="76"/>
  <path d="M179,65l-19.8485-19.7387.8485-45.2613h19v1.5"/>
  <rect x="449" y="28" width="38" height="19"/>
  <path d="M383.7048,74.7952c-1.119-.3323-16.764-16.2499-16.764-16.2499l-1.9408-2.5453,14.3627-12.9277,30.6373,31.9277"/>
</svg>