<?xml version="1.0" encoding="UTF-8"?>
<svg id="_レイヤー_2" data-name="レイヤー 2" xmlns="http://www.w3.org/2000/svg" viewBox="0 0 425.1 366">
  <defs>
    <style>
      .cls-1 {
        fill: #fff;
      }
    </style>
  </defs>
  <g id="_レイヤー_1-2" data-name=" レイヤー 1">
    <path class="cls-1" d="M0,.1l32.8,23.8.3,112.6,22.7,16.8V41.8c2.8-.5,4,.3,6.2,1.7,8.7,5.5,18.1,14.6,27,20.5v138.7l22.6,6.4v-127.1l26.9,17.5,6.1,7.8v127.1c-6.7,23.7-8.6,15.8-24.4,10.5-31.1-10.5-64-11.1-95.8-2.7C57.1,214.6,43.4,164.5,0,160.4V.1h0Z"/>
    <path class="cls-1" d="M425,160.4c-43.3,4.1-57.1,54.2-24.4,81.8-31.9-8.8-65.9-7.6-97.2,3-4.5,1.5-8.8,6.3-13.4,5.8-4.9-.5-9.8-13.4-9.7-18.3l.5-126.9,82.3-62.3,6.2-1.7v84.5c-6.2,4.5-12.5,9.8-17.4,15.7-6,7.2-9.7,16.5-15.7,23.5v-61l-22.6,16.5v88l36.6-5.2c-.3-27.5,16.8-55,41.5-66.5l.6-113.5L425.1,0v160.2h0v.2h-.1Z"/>
    <path class="cls-1" d="M167.2,106.4l34.5,39.5.3,114.7,9.7,16.5,9.7-11.2,2-120,34.5-39.5v138.5c0,4.4,11,15.7,10.5,20.7-31.3,23.9-51.9,60.8-55,100.4l-5.6-24c-8.3-30.4-26.3-57.3-51.1-76.3-.5-5,10.5-16.3,10.5-20.7V106.5h0v-.0999Z"/>
    <polygon class="cls-1" points="214.2 33.2 248.9 93.1 214.4 134.9 210.8 136 176.1 93.1 210.6 34.3 214.2 33.2"/>
  </g>
</svg>